<svg width="20" height="20" viewBox="0 0 20 20" fill="none" xmlns="http://www.w3.org/2000/svg">
<path fill-rule="evenodd" clip-rule="evenodd"
 d="M10 20C15.5229 20 20 15.5228 20 10C20 4.47716 15.5229 0 10 0C4.47705 0 0 4.47716 0 10C0 15.5228 4.47705 20 10 20ZM7.48999 10.0369C7.48999 9.8004 7.52393 9.5705 7.58521 9.35371L15.4851 17L16.4429 16.0738L3.95776 4L3 4.92622L4.54199 6.41739C3.82861 7.45528 3.41431 8.69682 3.41431 10.0369C3.41431 11.8499 4.17505 13.4922 5.40454 14.6812L6.36914 13.7484C5.38428 12.8024 4.77295 11.4886 4.77295 10.0369C4.77295 9.06468 5.04468 8.1516 5.52686 7.36989L6.52539 8.33553C6.27417 8.85448 6.13159 9.42598 6.13159 10.0369C6.13159 11.1273 6.58667 12.1127 7.32031 12.8287L8.28491 11.8959C7.79565 11.4164 7.48999 10.7595 7.48999 10.0369ZM14.283 10.0369C14.283 10.6478 14.1401 11.2193 13.8889 11.7383L12.8291 10.7201C12.8904 10.5033 12.9243 10.2734 12.9243 10.0369C12.9243 9.3143 12.6187 8.65741 12.1228 8.18443L13.0874 7.25165C13.8276 7.96109 14.283 8.94644 14.283 10.0369ZM14.8875 12.7039C15.3696 11.9222 15.6414 11.0091 15.6414 10.0369C15.6414 8.58514 15.03 7.27135 14.0452 6.32542L15.0098 5.39262C16.2393 6.5816 17 8.22385 17 10.0369C17 11.377 16.5857 12.6185 15.8723 13.6564L14.8875 12.7039Z" fill="#121212"/>
</svg>
